<mxfile host="Electron" modified="2023-11-21T10:53:29.289Z" agent="Mozilla/5.0 (X11; Linux x86_64) AppleWebKit/537.36 (KHTML, like Gecko) draw.io/22.1.2 Chrome/114.0.5735.289 Electron/25.9.4 Safari/537.36" etag="67gaKbFeu21cRYore6vS" version="22.1.2" type="device">
  <diagram name="Page-1" id="NPAM9u2DJNCyEB-IElqd">
    <mxGraphModel dx="1220" dy="709" grid="1" gridSize="10" guides="1" tooltips="1" connect="1" arrows="1" fold="1" page="1" pageScale="1" pageWidth="850" pageHeight="1100" math="1" shadow="0">
      <root>
        <mxCell id="0" />
        <mxCell id="1" parent="0" />
        <mxCell id="9eT3Nj95DsJxeeoKSfUY-1" style="edgeStyle=orthogonalEdgeStyle;shape=connector;rounded=0;orthogonalLoop=1;jettySize=auto;html=1;exitX=1;exitY=0;exitDx=0;exitDy=0;exitPerimeter=0;labelBackgroundColor=default;strokeColor=default;align=center;verticalAlign=middle;fontFamily=Helvetica;fontSize=11;fontColor=default;endArrow=oval;endFill=0;" edge="1" parent="1" source="9eT3Nj95DsJxeeoKSfUY-2">
          <mxGeometry relative="1" as="geometry">
            <mxPoint x="420" y="590" as="targetPoint" />
            <Array as="points">
              <mxPoint x="320" y="590" />
              <mxPoint x="420" y="590" />
            </Array>
          </mxGeometry>
        </mxCell>
        <mxCell id="9eT3Nj95DsJxeeoKSfUY-2" value="" style="verticalLabelPosition=bottom;shadow=0;dashed=0;align=center;html=1;verticalAlign=top;shape=mxgraph.electrical.transistors.nmos;pointerEvents=1;" vertex="1" parent="1">
          <mxGeometry x="260" y="590" width="60" height="100" as="geometry" />
        </mxCell>
        <mxCell id="9eT3Nj95DsJxeeoKSfUY-26" style="edgeStyle=orthogonalEdgeStyle;rounded=0;orthogonalLoop=1;jettySize=auto;html=1;exitX=0;exitY=0.5;exitDx=0;exitDy=0;exitPerimeter=0;endArrow=oval;endFill=0;" edge="1" parent="1" source="9eT3Nj95DsJxeeoKSfUY-3">
          <mxGeometry relative="1" as="geometry">
            <mxPoint x="190" y="520.1428571428571" as="targetPoint" />
          </mxGeometry>
        </mxCell>
        <mxCell id="9eT3Nj95DsJxeeoKSfUY-3" value="" style="verticalLabelPosition=bottom;shadow=0;dashed=0;align=center;html=1;verticalAlign=top;shape=mxgraph.electrical.transistors.pmos;pointerEvents=1;" vertex="1" parent="1">
          <mxGeometry x="200" y="470" width="60" height="100" as="geometry" />
        </mxCell>
        <mxCell id="9eT3Nj95DsJxeeoKSfUY-27" style="edgeStyle=orthogonalEdgeStyle;rounded=0;orthogonalLoop=1;jettySize=auto;html=1;exitX=0;exitY=0.5;exitDx=0;exitDy=0;exitPerimeter=0;endArrow=oval;endFill=0;" edge="1" parent="1" source="9eT3Nj95DsJxeeoKSfUY-4">
          <mxGeometry relative="1" as="geometry">
            <mxPoint x="310" y="520" as="targetPoint" />
          </mxGeometry>
        </mxCell>
        <mxCell id="9eT3Nj95DsJxeeoKSfUY-4" value="" style="verticalLabelPosition=bottom;shadow=0;dashed=0;align=center;html=1;verticalAlign=top;shape=mxgraph.electrical.transistors.pmos;pointerEvents=1;" vertex="1" parent="1">
          <mxGeometry x="320" y="470" width="60" height="100" as="geometry" />
        </mxCell>
        <mxCell id="9eT3Nj95DsJxeeoKSfUY-32" style="edgeStyle=orthogonalEdgeStyle;shape=connector;rounded=0;orthogonalLoop=1;jettySize=auto;html=1;exitX=0;exitY=0.5;exitDx=0;exitDy=0;exitPerimeter=0;labelBackgroundColor=default;strokeColor=default;align=center;verticalAlign=middle;fontFamily=Helvetica;fontSize=11;fontColor=default;endArrow=oval;endFill=0;" edge="1" parent="1" source="9eT3Nj95DsJxeeoKSfUY-5">
          <mxGeometry relative="1" as="geometry">
            <mxPoint x="250" y="760" as="targetPoint" />
          </mxGeometry>
        </mxCell>
        <mxCell id="9eT3Nj95DsJxeeoKSfUY-5" value="" style="verticalLabelPosition=bottom;shadow=0;dashed=0;align=center;html=1;verticalAlign=top;shape=mxgraph.electrical.transistors.nmos;pointerEvents=1;" vertex="1" parent="1">
          <mxGeometry x="260" y="710" width="60" height="100" as="geometry" />
        </mxCell>
        <mxCell id="9eT3Nj95DsJxeeoKSfUY-6" style="edgeStyle=orthogonalEdgeStyle;shape=connector;rounded=0;orthogonalLoop=1;jettySize=auto;html=1;exitX=1;exitY=1;exitDx=0;exitDy=0;exitPerimeter=0;entryX=1;entryY=0;entryDx=0;entryDy=0;entryPerimeter=0;labelBackgroundColor=default;strokeColor=default;align=center;verticalAlign=middle;fontFamily=Helvetica;fontSize=11;fontColor=default;endArrow=none;endFill=0;" edge="1" parent="1" source="9eT3Nj95DsJxeeoKSfUY-3" target="9eT3Nj95DsJxeeoKSfUY-2">
          <mxGeometry relative="1" as="geometry">
            <Array as="points">
              <mxPoint x="260" y="590" />
              <mxPoint x="320" y="590" />
            </Array>
          </mxGeometry>
        </mxCell>
        <mxCell id="9eT3Nj95DsJxeeoKSfUY-7" style="edgeStyle=orthogonalEdgeStyle;shape=connector;rounded=0;orthogonalLoop=1;jettySize=auto;html=1;exitX=1;exitY=1;exitDx=0;exitDy=0;exitPerimeter=0;entryX=1;entryY=0;entryDx=0;entryDy=0;entryPerimeter=0;labelBackgroundColor=default;strokeColor=default;align=center;verticalAlign=middle;fontFamily=Helvetica;fontSize=11;fontColor=default;endArrow=none;endFill=0;" edge="1" parent="1" source="9eT3Nj95DsJxeeoKSfUY-4" target="9eT3Nj95DsJxeeoKSfUY-2">
          <mxGeometry relative="1" as="geometry">
            <Array as="points">
              <mxPoint x="380" y="590" />
              <mxPoint x="320" y="590" />
            </Array>
          </mxGeometry>
        </mxCell>
        <mxCell id="9eT3Nj95DsJxeeoKSfUY-8" style="edgeStyle=orthogonalEdgeStyle;shape=connector;rounded=0;orthogonalLoop=1;jettySize=auto;html=1;exitX=1;exitY=1;exitDx=0;exitDy=0;exitPerimeter=0;entryX=1;entryY=0;entryDx=0;entryDy=0;entryPerimeter=0;labelBackgroundColor=default;strokeColor=default;align=center;verticalAlign=middle;fontFamily=Helvetica;fontSize=11;fontColor=default;endArrow=none;endFill=0;" edge="1" parent="1" source="9eT3Nj95DsJxeeoKSfUY-2" target="9eT3Nj95DsJxeeoKSfUY-5">
          <mxGeometry relative="1" as="geometry" />
        </mxCell>
        <mxCell id="9eT3Nj95DsJxeeoKSfUY-9" style="edgeStyle=orthogonalEdgeStyle;shape=connector;rounded=0;orthogonalLoop=1;jettySize=auto;html=1;exitX=1;exitY=0;exitDx=0;exitDy=0;exitPerimeter=0;entryX=1;entryY=0;entryDx=0;entryDy=0;entryPerimeter=0;labelBackgroundColor=default;strokeColor=default;align=center;verticalAlign=middle;fontFamily=Helvetica;fontSize=11;fontColor=default;endArrow=none;endFill=0;" edge="1" parent="1" source="9eT3Nj95DsJxeeoKSfUY-3" target="9eT3Nj95DsJxeeoKSfUY-4">
          <mxGeometry relative="1" as="geometry" />
        </mxCell>
        <mxCell id="9eT3Nj95DsJxeeoKSfUY-16" value="" style="pointerEvents=1;verticalLabelPosition=bottom;shadow=0;dashed=0;align=center;html=1;verticalAlign=top;shape=mxgraph.electrical.signal_sources.protective_earth;fontFamily=Helvetica;fontSize=11;fontColor=default;" vertex="1" parent="1">
          <mxGeometry x="300" y="810" width="40" height="20" as="geometry" />
        </mxCell>
        <mxCell id="9eT3Nj95DsJxeeoKSfUY-17" style="edgeStyle=orthogonalEdgeStyle;shape=connector;rounded=0;orthogonalLoop=1;jettySize=auto;html=1;exitX=0.5;exitY=0;exitDx=0;exitDy=0;exitPerimeter=0;entryX=1;entryY=1;entryDx=0;entryDy=0;entryPerimeter=0;labelBackgroundColor=default;strokeColor=default;align=center;verticalAlign=middle;fontFamily=Helvetica;fontSize=11;fontColor=default;endArrow=none;endFill=0;" edge="1" parent="1" source="9eT3Nj95DsJxeeoKSfUY-16" target="9eT3Nj95DsJxeeoKSfUY-5">
          <mxGeometry relative="1" as="geometry" />
        </mxCell>
        <mxCell id="9eT3Nj95DsJxeeoKSfUY-19" value="A" style="text;html=1;align=center;verticalAlign=middle;resizable=0;points=[];autosize=1;strokeColor=none;fillColor=none;" vertex="1" parent="1">
          <mxGeometry x="170" y="488" width="30" height="30" as="geometry" />
        </mxCell>
        <mxCell id="9eT3Nj95DsJxeeoKSfUY-20" value="B" style="text;html=1;align=center;verticalAlign=middle;resizable=0;points=[];autosize=1;strokeColor=none;fillColor=none;" vertex="1" parent="1">
          <mxGeometry x="230" y="730" width="30" height="30" as="geometry" />
        </mxCell>
        <mxCell id="9eT3Nj95DsJxeeoKSfUY-21" value="B" style="text;html=1;align=center;verticalAlign=middle;resizable=0;points=[];autosize=1;strokeColor=none;fillColor=none;" vertex="1" parent="1">
          <mxGeometry x="290" y="488" width="30" height="30" as="geometry" />
        </mxCell>
        <mxCell id="9eT3Nj95DsJxeeoKSfUY-22" value="A" style="text;html=1;align=center;verticalAlign=middle;resizable=0;points=[];autosize=1;strokeColor=none;fillColor=none;" vertex="1" parent="1">
          <mxGeometry x="240" y="610" width="30" height="30" as="geometry" />
        </mxCell>
        <mxCell id="9eT3Nj95DsJxeeoKSfUY-23" value="Out" style="text;html=1;align=center;verticalAlign=middle;resizable=0;points=[];autosize=1;strokeColor=none;fillColor=none;" vertex="1" parent="1">
          <mxGeometry x="405" y="560" width="40" height="30" as="geometry" />
        </mxCell>
        <mxCell id="9eT3Nj95DsJxeeoKSfUY-25" value="$$V_{DD}$$" style="text;html=1;align=center;verticalAlign=middle;resizable=0;points=[];autosize=1;strokeColor=none;fillColor=none;" vertex="1" parent="1">
          <mxGeometry x="270" y="420" width="90" height="30" as="geometry" />
        </mxCell>
        <mxCell id="9eT3Nj95DsJxeeoKSfUY-30" style="edgeStyle=orthogonalEdgeStyle;shape=connector;rounded=0;orthogonalLoop=1;jettySize=auto;html=1;exitX=0;exitY=0.5;exitDx=0;exitDy=0;exitPerimeter=0;labelBackgroundColor=default;strokeColor=default;align=center;verticalAlign=middle;fontFamily=Helvetica;fontSize=11;fontColor=default;endArrow=oval;endFill=0;" edge="1" parent="1" source="9eT3Nj95DsJxeeoKSfUY-2">
          <mxGeometry relative="1" as="geometry">
            <mxPoint x="250" y="640" as="targetPoint" />
          </mxGeometry>
        </mxCell>
      </root>
    </mxGraphModel>
  </diagram>
</mxfile>
